<?xml version="1.0" encoding="UTF-8"?>
<svg version="1.1" xmlns="http://www.w3.org/2000/svg" width="1900" height="1200">
<path d="M0 0 C627 0 1254 0 1900 0 C1900 396 1900 792 1900 1200 C1273 1200 646 1200 0 1200 C0 804 0 408 0 0 Z " fill="#4D4D4D" transform="translate(0,0)"/>
<path d="M0 0 C141.57 0 283.14 0 429 0 C429 141.57 429 283.14 429 429 C287.43 429 145.86 429 0 429 C0 287.43 0 145.86 0 0 Z " fill="#4E4E4E" transform="translate(736,386)"/>
<path d="M0 0 C141.57 0 283.14 0 429 0 C429 141.57 429 283.14 429 429 C287.43 429 145.86 429 0 429 C0 287.43 0 145.86 0 0 Z M37 37 C37 123.46 37 209.92 37 299 C154.15 299 271.3 299 392 299 C392 212.54 392 126.08 392 37 C274.85 37 157.7 37 37 37 Z " fill="#FFFFFF" transform="translate(736,386)"/>
<path d="M0 0 C2.48377523 3.03649966 3.9685077 5.98451189 5.42236328 9.62060547 C5.88290604 10.76381256 6.34344879 11.90701965 6.81794739 13.08486938 C7.31883136 14.34560411 7.81961651 15.6063781 8.3203125 16.8671875 C8.85275047 18.19498852 9.38573826 19.52256919 9.91923523 20.84994507 C11.06279628 23.69843355 12.20262049 26.54837763 13.33950806 29.39953613 C15.13555745 33.90375523 16.93951402 38.40477913 18.74487305 42.90527344 C20.61328366 47.56410064 22.48107071 52.22317359 24.34593201 56.88342285 C28.59390885 67.49891969 32.85790542 78.10783311 37.13671875 88.7109375 C37.56343872 89.76842257 37.56343872 89.76842257 37.9987793 90.84727097 C39.39660045 94.31107062 40.79472665 97.77474703 42.1930542 101.23834229 C43.7798638 105.16890372 45.36595401 109.099755 46.95166016 113.03076172 C47.32585398 113.95830985 47.32585398 113.95830985 47.70760727 114.90459633 C49.33909169 118.9492834 50.96788915 122.9950467 52.59619141 127.04101562 C54.06131738 130.67978911 55.53549012 134.31446259 57.02490234 137.94335938 C57.31443283 138.65320984 57.60396332 139.3630603 57.90226746 140.09442139 C58.6249191 141.86484805 59.35257925 143.63322829 60.08081055 145.40136719 C61 148 61 148 61 151 C-28.43 151 -117.86 151 -210 151 C-199.65655214 129.1638323 -199.65655214 129.1638323 -194.65234375 119.20703125 C-193.83909386 117.58265388 -193.83909386 117.58265388 -193.00941467 115.92546082 C-191.32069655 112.55350757 -189.62916642 109.18297491 -187.9375 105.8125 C-186.77389945 103.49032911 -185.61048683 101.16806405 -184.44726562 98.84570312 C-181.63366966 93.22938437 -178.8177802 87.61422054 -176 82 C-171.97721211 85.38316963 -168.08011837 88.80019426 -164.40625 92.56640625 C-163.60316406 93.38173828 -162.80007813 94.19707031 -161.97265625 95.03710938 C-160.32226495 96.72269859 -158.67382987 98.41020537 -157.02734375 100.09960938 C-152.59730132 104.5900938 -148.27536174 108.53272595 -143 112 C-142.58339111 111.32235596 -142.16678223 110.64471191 -141.73754883 109.9465332 C-123.29834075 79.95785268 -123.29834075 79.95785268 -115.57324219 67.54199219 C-113.91396805 64.86099245 -112.2730352 62.16925354 -110.6328125 59.4765625 C-109.5472088 57.7133361 -108.46128329 55.9503078 -107.375 54.1875 C-106.62911621 52.94915405 -106.62911621 52.94915405 -105.86816406 51.68579102 C-105.4037793 50.93740967 -104.93939453 50.18902832 -104.4609375 49.41796875 C-103.85451416 48.42446411 -103.85451416 48.42446411 -103.23583984 47.41088867 C-102.8280127 46.94529541 -102.42018555 46.47970215 -102 46 C-99 46 -99 46 -97.12068176 47.51855469 C-96.06478096 48.58444824 -96.06478096 48.58444824 -94.98754883 49.671875 C-94.18694534 50.47270508 -93.38634186 51.27353516 -92.56147766 52.09863281 C-91.70201035 52.97358398 -90.84254303 53.84853516 -89.95703125 54.75 C-89.0734343 55.6378418 -88.18983734 56.52568359 -87.27946472 57.44042969 C-84.93135977 59.80250628 -82.58996475 62.17085882 -80.25152588 64.54248047 C-77.86388241 66.96080875 -75.46772672 69.37066963 -73.07226562 71.78125 C-68.37360317 76.51304647 -63.68360083 81.25329741 -59 86 C-56.41320521 83.51802893 -54.23698425 81.0960375 -52.28051758 78.09399414 C-51.7800441 77.33153381 -51.27957062 76.56907349 -50.76393127 75.7835083 C-50.22952927 74.95905212 -49.69512726 74.13459595 -49.14453125 73.28515625 C-48.57359238 72.41340759 -48.0026535 71.54165894 -47.41441345 70.64349365 C-46.18385929 68.76407018 -44.955337 66.88331509 -43.7286377 65.00137329 C-40.48748618 60.03026206 -37.2300906 55.06982617 -33.97265625 50.109375 C-33.31083344 49.10103104 -32.64901062 48.09268707 -31.96713257 47.05378723 C-25.3070222 36.91992714 -18.5458758 26.85566187 -11.75 16.8125 C-11.20735504 16.00942413 -10.66471008 15.20634827 -10.10562134 14.37893677 C-8.58761335 12.13306393 -7.06776701 9.88845179 -5.546875 7.64453125 C-5.09722885 6.97999939 -4.6475827 6.31546753 -4.18431091 5.63079834 C-1.11728809 1.11728809 -1.11728809 1.11728809 0 0 Z " fill="#FEFEFE" transform="translate(1026,496)"/>
<path d="M0 0 C6.94597648 4.59641327 12.28545763 10.85637288 14.9375 18.8125 C15.81880259 28.30456231 14.48449165 36.52149139 8.5625 44.1875 C2.05500794 50.69499206 -4.30780046 53.09337939 -13.4375 53.1875 C-21.45837476 53.06954596 -25.88787012 51.62637648 -31.8125 46.375 C-32.555 45.529375 -33.2975 44.68375 -34.0625 43.8125 C-34.76375 43.049375 -35.465 42.28625 -36.1875 41.5 C-41.11397971 34.43871242 -42.20786067 27.26635259 -41.0625 18.8125 C-38.57473462 11.03961527 -33.87841404 4.7210359 -26.8828125 0.49609375 C-18.58960006 -3.40579473 -8.27079586 -4.35595248 0 0 Z " fill="#FDFDFD" transform="translate(870.0625,483.1875)"/>
</svg>
